<?xml version="1.0" standalone="no"?>
<!DOCTYPE svg PUBLIC "-//W3C//DTD SVG 20010904//EN"
 "http://www.w3.org/TR/2001/REC-SVG-20010904/DTD/svg10.dtd">
<svg version="1.0" xmlns="http://www.w3.org/2000/svg"
 width="1024.000000pt" height="1024.000000pt" viewBox="0 0 1024.000000 1024.000000"
 preserveAspectRatio="xMidYMid meet">
<metadata>
Created by potrace 1.14, written by Peter Selinger 2001-2017
</metadata>
<g transform="translate(0.000000,1024.000000) scale(0.100000,-0.100000)"
fill="#000000" stroke="none">
<path d="M5906 7853 c-2 -2 -34 -6 -72 -8 -38 -2 -108 -13 -156 -23 -49 -11
-88 -17 -88 -14 0 2 -6 0 -12 -5 -7 -6 -38 -16 -68 -24 -30 -7 -57 -14 -60
-15 -30 -11 -46 -15 -54 -14 -5 1 -12 -3 -15 -9 -4 -6 -16 -12 -26 -14 -11 -2
-33 -10 -50 -17 -16 -7 -32 -14 -35 -15 -15 -4 -196 -98 -207 -107 -7 -6 -13
-7 -13 -2 0 5 -5 1 -11 -8 -5 -10 -14 -18 -19 -18 -11 0 -104 -62 -108 -72 -2
-4 -10 -8 -18 -8 -8 0 -14 -4 -14 -10 0 -5 -5 -10 -11 -10 -6 0 -27 -16 -47
-35 -20 -19 -41 -35 -45 -35 -12 0 -224 -215 -262 -264 -17 -21 -34 -44 -40
-50 -5 -7 -14 -19 -20 -27 -59 -90 -96 -146 -105 -156 -6 -7 -7 -13 -3 -13 4
0 3 -4 -3 -8 -18 -11 -145 -268 -159 -322 -1 -3 -5 -13 -9 -22 -4 -9 -9 -22
-10 -30 -2 -7 -6 -22 -10 -33 -5 -11 -14 -36 -21 -56 -8 -20 -11 -39 -8 -43 4
-3 1 -6 -6 -6 -7 0 -10 -4 -7 -8 3 -5 1 -25 -5 -45 -9 -33 -14 -36 -54 -43
-25 -3 -45 -10 -45 -14 0 -4 -10 -7 -22 -7 -13 0 -30 -2 -38 -6 -37 -14 -136
-48 -146 -51 -7 -1 -19 -7 -27 -14 -8 -7 -19 -12 -23 -10 -5 1 -25 -6 -44 -17
-19 -10 -41 -20 -49 -21 -8 -2 -17 -6 -20 -11 -6 -9 -63 -36 -70 -33 -2 1 -7
-2 -10 -7 -3 -4 -18 -15 -33 -23 -52 -29 -173 -104 -184 -114 -6 -6 -21 -18
-34 -26 -77 -53 -292 -264 -336 -329 -15 -23 -29 -41 -33 -41 -3 0 -19 -25
-36 -55 -16 -30 -33 -55 -37 -55 -4 0 -8 -7 -8 -15 0 -8 -3 -15 -7 -15 -5 0
-13 -10 -19 -23 -6 -12 -34 -65 -62 -118 -28 -54 -49 -99 -46 -102 2 -2 -2
-10 -11 -17 -8 -7 -15 -16 -15 -21 0 -4 -4 -18 -9 -31 -5 -13 -10 -27 -12 -33
-1 -5 -8 -21 -15 -34 -7 -14 -11 -28 -8 -33 3 -4 0 -8 -7 -8 -7 0 -10 -3 -6
-6 3 -3 2 -17 -3 -30 -6 -14 -12 -35 -14 -47 -3 -12 -12 -48 -19 -79 -8 -32
-12 -58 -9 -58 2 0 0 -6 -6 -12 -6 -7 -10 -16 -10 -21 -1 -4 -4 -33 -8 -65 -5
-31 -8 -59 -9 -62 0 -3 -4 -10 -8 -17 -4 -6 -3 -14 3 -18 6 -4 7 -13 1 -23
-10 -19 -7 -372 3 -412 3 -14 7 -42 8 -62 1 -21 5 -38 10 -38 5 0 7 -4 3 -9
-3 -5 0 -31 6 -58 6 -26 12 -55 14 -63 15 -73 47 -167 86 -257 11 -24 19 -48
19 -55 0 -7 9 -24 20 -38 11 -14 20 -31 20 -38 0 -8 8 -26 18 -40 10 -15 24
-39 32 -54 7 -16 17 -28 22 -28 5 0 6 -4 3 -10 -3 -5 -2 -10 4 -10 5 0 13 -10
17 -22 4 -13 10 -25 13 -28 4 -3 20 -23 37 -45 16 -22 34 -45 39 -52 6 -6 26
-30 45 -54 46 -55 165 -175 221 -220 24 -20 55 -46 68 -58 13 -11 28 -18 32
-15 5 3 9 -2 9 -10 0 -9 3 -15 8 -14 4 2 35 -16 69 -40 34 -23 67 -42 72 -42
6 0 11 -5 11 -12 0 -6 3 -9 6 -6 3 4 22 -5 41 -18 19 -13 39 -21 44 -18 5 3 9
1 9 -3 0 -7 70 -45 90 -48 3 -1 23 -9 45 -19 22 -10 45 -19 50 -20 6 -2 17 -6
25 -9 21 -8 141 -47 163 -53 26 -6 103 -23 132 -28 68 -12 114 -20 140 -22 17
-1 30 -3 30 -4 0 -1 30 -2 66 -4 36 -2 71 -6 77 -10 7 -4 12 -2 12 4 0 7 6 8
19 1 10 -6 20 -9 22 -7 4 3 169 17 209 18 8 0 22 2 30 5 8 3 31 7 50 9 37 4
75 11 75 14 0 1 15 3 32 5 18 1 39 7 46 13 8 7 16 10 18 7 3 -2 23 1 45 7 21
6 41 12 44 13 44 11 90 30 90 36 0 5 7 6 16 2 9 -3 19 -2 23 3 5 8 59 31 86
38 25 6 248 122 265 138 11 10 20 16 20 13 0 -5 63 37 115 77 24 19 101 84
117 101 10 9 18 15 18 13 0 -2 23 19 50 47 28 27 50 51 50 53 0 1 18 21 40 43
23 23 38 41 35 41 -4 0 10 16 29 35 20 19 33 35 29 35 -4 0 3 9 15 20 12 12
22 27 22 34 0 8 7 16 15 20 8 3 15 12 15 20 0 8 4 16 8 18 11 4 114 178 106
178 -3 0 4 13 15 29 12 16 21 33 21 39 0 5 6 22 14 38 44 92 77 179 79 207 1
9 6 17 11 17 5 0 7 3 3 6 -3 3 -2 17 3 30 6 14 12 35 14 47 2 12 6 29 8 37 2
12 73 42 128 55 13 3 82 28 135 50 11 5 22 9 25 10 40 10 80 29 80 37 0 6 3 9
6 5 8 -7 186 81 196 97 4 6 8 8 8 4 0 -4 23 9 51 28 28 19 56 34 62 34 6 0 7
3 4 7 -6 6 13 20 53 39 8 4 21 16 28 26 7 10 17 18 22 18 6 0 23 14 40 31 16
18 30 29 30 26 0 -4 15 8 34 26 18 17 49 46 67 63 55 50 169 175 169 185 0 6
5 7 10 4 6 -3 10 -1 10 6 0 6 11 22 26 35 14 13 22 24 19 24 -4 0 7 18 24 39
17 21 31 44 31 49 0 6 7 15 16 20 9 5 15 11 13 13 -2 2 13 31 32 64 19 33 43
78 53 100 10 22 28 60 39 85 12 25 22 47 23 50 0 3 6 18 12 33 7 16 12 35 12
43 0 8 4 14 8 14 5 0 9 6 10 13 2 27 14 72 20 77 4 3 8 10 9 17 1 6 5 25 8 42
3 16 9 41 15 55 5 15 7 26 5 26 -2 0 -1 10 4 23 5 13 12 39 15 58 3 19 8 44
10 55 9 44 20 202 19 279 -1 71 -10 240 -13 240 -1 0 -3 16 -5 35 -4 38 -12
91 -21 130 -3 14 -8 36 -11 50 -4 24 -39 140 -50 170 -4 8 -7 17 -8 20 -22 64
-89 215 -98 221 -5 3 -9 10 -9 15 -2 23 -25 63 -33 57 -4 -5 -6 0 -2 9 3 9 0
19 -9 22 -8 3 -14 12 -14 21 0 8 -5 15 -11 15 -5 0 -8 4 -5 9 3 5 -1 14 -9 21
-8 7 -15 17 -15 23 0 14 -98 146 -141 190 -21 20 -35 37 -32 37 5 0 -83 87
-176 173 -28 26 -55 47 -60 47 -5 0 -11 3 -13 8 -4 9 -75 62 -83 62 -3 0 -21
11 -39 25 -18 14 -37 25 -41 25 -5 0 -16 7 -26 16 -9 8 -24 16 -32 18 -8 1
-21 7 -28 13 -8 6 -45 25 -84 42 -38 18 -79 36 -90 41 -21 10 -158 61 -162 61
-2 0 -8 1 -15 3 -7 3 -24 7 -38 9 -14 3 -56 12 -95 21 -81 17 -126 25 -175 32
-47 6 -349 12 -354 7z m233 -237 c6 -4 11 -2 11 4 0 6 4 9 8 6 4 -2 35 -8 67
-12 33 -3 71 -8 85 -10 14 -1 36 -5 50 -8 38 -9 83 -18 106 -21 11 -2 29 -8
40 -13 19 -11 130 -48 169 -57 44 -10 115 -39 115 -47 0 -4 5 -8 11 -8 12 0
142 -86 190 -124 14 -12 40 -32 59 -46 78 -59 198 -183 276 -286 46 -60 84
-115 84 -121 0 -5 9 -18 20 -28 11 -10 17 -21 15 -25 -3 -5 -1 -10 3 -12 12
-4 74 -136 102 -218 13 -36 28 -71 33 -77 5 -7 7 -13 3 -13 -3 0 0 -16 8 -35
8 -19 13 -35 11 -35 -2 0 2 -21 10 -47 15 -50 25 -98 31 -148 2 -16 7 -52 10
-80 9 -70 9 -277 1 -355 -10 -84 -11 -93 -20 -107 -5 -7 -6 -16 -3 -21 2 -4
-2 -33 -9 -65 -7 -31 -11 -57 -8 -57 3 0 0 -7 -7 -15 -6 -8 -9 -19 -5 -25 3
-5 1 -10 -4 -10 -6 0 -10 -3 -9 -7 3 -12 -13 -77 -22 -88 -7 -10 -23 -67 -20
-74 1 -2 -2 -7 -7 -10 -4 -3 -33 -55 -63 -115 -66 -130 -72 -141 -93 -164 -10
-10 -17 -22 -17 -26 0 -9 -52 -80 -62 -84 -5 -2 -8 -8 -8 -14 0 -11 -138 -168
-180 -204 -14 -12 -37 -32 -51 -45 -15 -13 -43 -37 -64 -54 -20 -16 -46 -38
-57 -47 -11 -10 -29 -20 -39 -23 -11 -4 -19 -11 -19 -16 0 -5 -7 -9 -15 -9 -7
0 -18 -6 -22 -13 -4 -7 -19 -18 -33 -25 -14 -7 -39 -21 -56 -31 -44 -27 -179
-96 -182 -93 -1 1 -18 -7 -38 -17 -20 -11 -58 -25 -85 -32 -27 -7 -49 -17 -49
-21 0 -5 -4 -7 -9 -4 -4 3 -31 -3 -60 -13 -28 -11 -51 -18 -51 -15 0 2 -12 -1
-27 -7 -28 -11 -64 -18 -113 -24 -14 -1 -28 -3 -32 -4 -4 0 -8 -11 -7 -23 0
-34 -7 -77 -21 -128 -7 -25 -14 -58 -17 -73 -2 -16 -11 -46 -18 -68 -8 -21
-12 -39 -10 -39 2 0 -2 -12 -10 -27 -8 -15 -12 -30 -9 -35 3 -4 0 -8 -5 -8 -6
0 -10 -3 -9 -7 3 -15 -14 -63 -23 -63 -5 0 -8 -3 -8 -7 3 -21 -2 -34 -11 -28
-6 4 -9 3 -8 -2 4 -14 -23 -83 -33 -83 -5 0 -9 -9 -9 -19 0 -11 -3 -21 -7 -23
-10 -4 -65 -88 -58 -88 3 0 1 -6 -5 -13 -24 -28 -46 -56 -60 -77 -8 -13 -24
-31 -34 -41 -11 -11 -16 -19 -12 -19 8 0 -48 -62 -108 -118 -21 -20 -54 -52
-72 -69 -19 -18 -34 -30 -34 -26 0 3 -13 -8 -30 -25 -16 -18 -30 -29 -30 -26
0 6 -72 -47 -82 -61 -4 -5 -8 -7 -8 -3 0 4 -24 -9 -52 -28 -29 -19 -56 -34
-61 -34 -5 0 -15 -7 -24 -15 -8 -8 -19 -13 -24 -10 -5 4 -9 2 -9 -2 0 -5 -19
-17 -42 -28 -24 -10 -65 -28 -93 -40 -27 -12 -54 -23 -60 -25 -5 -1 -14 -4
-20 -6 -39 -13 -130 -36 -130 -34 0 2 -10 -2 -23 -9 -12 -6 -40 -14 -62 -16
-23 -2 -45 -7 -51 -11 -6 -3 -30 -8 -52 -10 -23 -2 -69 -6 -102 -10 -98 -11
-317 -5 -395 10 -29 5 -85 16 -110 20 -14 3 -40 9 -58 15 -18 5 -36 10 -40 11
-4 0 -25 6 -47 12 -22 6 -43 12 -47 14 -5 1 -11 3 -15 4 -5 1 -11 2 -15 1 -5
0 -8 4 -8 9 0 6 -9 10 -20 10 -11 0 -35 9 -55 20 -19 11 -38 21 -43 22 -31 7
-163 78 -174 93 -4 6 -8 7 -8 2 0 -6 -75 38 -90 53 -3 3 -23 18 -45 35 -71 52
-335 324 -335 344 0 6 -4 11 -9 11 -5 0 -20 23 -32 50 -12 28 -27 50 -31 50
-5 0 -7 4 -3 9 3 5 -2 16 -10 25 -9 8 -15 17 -14 18 1 2 -17 43 -40 91 -23 48
-44 95 -46 105 -2 9 -10 33 -18 52 -8 19 -18 49 -21 65 -3 17 -10 50 -16 75
-30 119 -40 209 -41 375 0 113 2 141 16 255 8 62 22 145 25 145 1 0 3 11 6 25
5 32 52 176 70 217 8 17 14 34 14 37 0 3 9 25 19 49 11 23 27 60 36 82 20 49
114 195 126 195 5 0 9 6 9 13 0 14 30 51 103 127 20 22 37 43 37 46 0 8 76 84
83 84 3 0 24 18 46 40 22 22 45 40 51 40 5 0 15 9 22 20 7 11 17 20 23 20 5 0
30 16 54 35 24 19 47 35 52 35 4 0 14 6 21 13 7 7 36 23 63 37 28 14 53 29 56
33 3 5 8 7 10 6 2 -2 40 12 84 31 102 42 212 80 235 80 15 0 17 -7 13 -42 -2
-24 -5 -68 -7 -99 -3 -60 -12 -83 -27 -74 -5 4 -9 2 -9 -4 0 -6 -28 -24 -62
-40 -84 -41 -169 -89 -188 -106 -9 -8 -20 -15 -25 -15 -10 0 -109 -71 -113
-82 -2 -4 -10 -8 -17 -8 -7 0 -15 -3 -17 -7 -1 -5 -28 -29 -58 -54 -56 -47
-140 -128 -140 -135 0 -2 -8 -12 -17 -22 -10 -10 -27 -31 -38 -46 -11 -16 -26
-34 -32 -41 -7 -8 -13 -18 -13 -24 0 -6 -4 -11 -9 -11 -5 0 -13 -10 -17 -22
-4 -13 -10 -25 -14 -28 -6 -5 -57 -93 -88 -155 -9 -16 -18 -32 -21 -35 -3 -3
-7 -11 -9 -19 -2 -8 -10 -30 -19 -50 -9 -20 -17 -40 -18 -46 -2 -5 -9 -23 -16
-40 -6 -16 -13 -34 -14 -40 -1 -5 -3 -12 -4 -15 -3 -6 -2 -4 -24 -115 -9 -44
-19 -100 -22 -125 -8 -55 -13 -249 -7 -254 2 -3 5 -31 7 -63 4 -72 9 -98 35
-193 11 -41 23 -85 25 -97 11 -51 75 -184 126 -263 74 -115 121 -180 131 -180
4 0 8 -5 8 -11 0 -10 127 -139 138 -139 3 0 12 -7 21 -15 31 -30 76 -65 84
-65 4 0 17 -9 29 -20 12 -11 28 -20 35 -20 7 0 13 -5 13 -11 0 -5 5 -7 10 -4
6 3 10 2 10 -4 0 -6 20 -20 44 -31 25 -11 48 -24 51 -30 3 -5 13 -10 22 -10 8
0 29 -6 46 -14 50 -22 69 -29 112 -40 11 -3 38 -10 60 -16 22 -6 47 -13 55
-15 8 -2 15 -4 15 -5 0 -2 20 -5 95 -15 30 -4 57 -11 60 -16 3 -4 12 -4 20 1
8 5 21 5 29 1 27 -14 304 -3 329 12 7 5 12 3 12 -5 0 -10 2 -10 9 0 4 8 10 13
12 12 2 -1 24 1 49 5 25 3 52 7 60 8 8 2 20 5 25 9 13 7 78 22 88 20 4 -1 7 2
7 7 0 5 13 11 29 14 15 3 58 20 95 36 37 17 71 31 76 31 6 0 10 3 10 8 0 4 19
16 43 26 23 10 44 21 47 25 3 4 29 22 58 40 28 18 52 37 52 43 0 5 4 7 9 3 6
-3 13 0 18 7 4 8 24 26 43 42 85 69 205 196 260 275 14 20 28 38 33 39 4 2 7
8 7 14 0 5 8 22 19 36 32 46 100 180 93 186 -3 3 -1 6 4 6 5 0 10 10 11 22 1
11 8 25 15 29 7 5 10 9 6 9 -4 0 3 25 17 55 13 30 22 55 19 55 -2 0 2 13 11
30 8 16 15 32 14 35 0 3 2 18 5 33 3 15 8 43 12 62 3 19 7 42 9 50 2 8 4 34 4
58 1 33 5 42 19 42 9 0 64 14 122 31 58 16 112 32 120 34 19 5 100 34 120 42
8 3 17 7 20 8 106 36 395 198 408 228 2 4 10 7 17 7 7 0 15 3 17 8 2 4 34 34
73 67 119 102 126 109 179 163 76 80 79 83 122 137 21 28 42 52 47 53 4 2 5 7
2 12 -3 4 2 13 10 20 8 7 15 19 15 26 0 8 3 14 8 14 4 0 20 23 35 50 16 28 25
50 21 50 -4 0 0 8 8 18 24 28 124 282 111 282 -3 0 0 7 7 15 6 8 9 19 5 25 -3
5 -2 10 4 10 5 0 8 8 6 18 -1 9 4 32 11 50 9 21 9 30 2 26 -6 -4 -8 -3 -5 3 9
15 16 62 18 121 1 30 7 52 13 52 7 0 7 3 1 8 -6 4 -11 45 -11 92 -1 47 -4 105
-8 130 -13 100 -17 127 -27 165 -6 22 -11 41 -10 43 1 1 -5 18 -13 37 -8 19
-12 35 -8 35 3 0 1 5 -6 12 -7 7 -12 20 -12 30 0 10 -4 18 -10 18 -5 0 -10 11
-10 25 0 14 -4 25 -9 25 -5 0 -11 9 -14 20 -3 11 -6 22 -7 25 0 2 -22 44 -47
92 -40 76 -89 150 -142 216 -30 37 -191 196 -191 189 0 -4 -5 1 -11 11 -5 9
-14 17 -20 17 -5 0 -20 9 -32 21 -12 11 -35 28 -52 36 -16 9 -32 19 -35 22
-11 15 -307 140 -314 134 -3 -3 -18 -1 -33 5 -15 6 -41 13 -58 16 -16 3 -41 7
-55 10 -48 11 -126 20 -182 20 -32 1 -58 5 -58 9 0 5 -5 5 -11 1 -6 -3 -45 -8
-87 -9 -43 -2 -77 -4 -77 -5 0 -2 -11 -4 -25 -5 -50 -5 -106 -15 -165 -30 -33
-9 -65 -17 -72 -18 -7 -2 -16 -6 -19 -10 -4 -4 -13 -7 -21 -7 -7 0 -29 -7 -49
-15 -19 -8 -35 -13 -37 -12 -1 1 -19 -9 -39 -21 -21 -13 -38 -20 -38 -15 0 4
-4 3 -8 -3 -4 -5 -32 -23 -62 -38 -30 -16 -62 -34 -71 -42 -9 -8 -19 -11 -22
-7 -4 3 -7 1 -7 -5 0 -7 -5 -12 -10 -12 -6 0 -63 -38 -126 -85 -64 -47 -114
-85 -112 -85 2 0 -26 -31 -62 -69 -36 -38 -71 -77 -78 -85 -20 -25 -142 -215
-142 -222 0 -3 -9 -19 -21 -35 -11 -16 -17 -29 -12 -29 4 0 3 -4 -2 -8 -14
-10 -67 -123 -94 -202 -13 -36 -25 -72 -28 -80 -3 -8 -7 -25 -9 -37 -1 -13 -5
-32 -9 -42 -10 -34 -16 -64 -22 -123 l-6 -57 -56 -16 c-31 -8 -71 -20 -89 -26
-56 -18 -82 -20 -83 -7 -3 29 7 123 16 168 5 23 8 39 19 120 2 14 5 25 6 25 1
0 3 7 5 15 2 8 6 26 9 40 6 29 16 71 20 85 3 10 6 17 22 60 4 11 9 28 11 38 1
10 11 32 20 50 9 18 16 35 15 40 -1 4 2 7 8 7 6 0 9 3 8 8 -4 11 56 142 65
142 4 0 7 7 7 15 0 8 4 15 9 15 5 0 12 9 16 19 7 23 101 152 118 163 7 4 9 8
4 8 -16 0 175 197 243 250 24 19 51 42 60 50 27 26 168 120 179 120 6 0 11 4
11 9 0 6 142 79 170 86 3 1 19 7 35 14 17 7 35 14 40 15 6 1 27 10 49 19 21 9
44 17 50 17 7 0 17 5 24 12 7 7 12 9 12 5 0 -4 17 0 38 7 61 24 238 58 314 61
15 0 29 3 32 5 7 8 192 4 205 -4z m71 -449 c8 -2 35 -7 60 -11 75 -12 121 -22
150 -33 8 -3 20 -7 25 -9 59 -19 85 -30 85 -37 0 -5 5 -5 10 -2 6 3 10 1 10
-4 0 -6 5 -11 11 -11 13 0 123 -65 142 -84 7 -7 17 -15 23 -17 48 -18 286
-258 257 -259 -4 0 0 -5 10 -11 9 -5 17 -16 17 -24 0 -7 4 -15 9 -17 8 -3 116
-201 121 -223 1 -5 4 -14 6 -20 11 -34 36 -129 40 -152 5 -27 7 -37 19 -98 4
-16 6 -93 6 -170 0 -157 -3 -195 -10 -195 -4 0 -7 -10 -7 -22 -2 -38 -11 -80
-30 -138 -10 -30 -17 -58 -16 -62 1 -5 -2 -8 -6 -8 -5 0 -9 -6 -9 -12 0 -17
-95 -212 -105 -216 -4 -2 -8 -10 -8 -18 0 -8 -5 -14 -11 -14 -5 0 -7 -4 -4
-10 3 -5 2 -10 -3 -10 -5 0 -13 -10 -19 -23 -33 -71 -350 -372 -414 -392 -10
-4 -19 -11 -19 -16 0 -5 -7 -9 -15 -9 -8 0 -24 -8 -35 -17 -11 -10 -24 -17
-28 -17 -4 1 -20 -8 -37 -20 -16 -11 -36 -20 -42 -18 -7 2 -13 -3 -13 -9 0 -7
-3 -10 -6 -7 -3 3 -44 -12 -91 -34 -47 -22 -93 -42 -102 -43 -9 -2 -16 -4 -16
-5 0 -1 -7 -3 -15 -5 -8 -2 -57 -15 -107 -29 -51 -13 -93 -22 -93 -19 0 2 -6
1 -12 -4 -7 -4 -17 -8 -23 -9 -5 -1 -26 -4 -45 -7 -19 -3 -55 -9 -80 -14 -77
-14 -533 -5 -655 12 -16 3 -50 7 -75 11 -25 3 -48 11 -51 16 -3 5 -10 9 -15 8
-16 -3 -84 23 -84 32 0 5 -4 6 -10 3 -5 -3 -10 -2 -10 4 0 5 -8 12 -18 15 -23
8 -122 99 -122 113 0 6 -9 15 -20 18 -11 3 -20 13 -20 21 0 8 -4 14 -8 14 -5
0 -9 6 -9 14 0 16 16 15 244 -9 23 -3 68 -7 100 -10 92 -9 124 -13 183 -21 30
-4 79 -7 107 -8 29 -1 53 -3 53 -6 0 -3 35 -5 78 -5 42 1 83 -3 90 -8 6 -5 12
-6 12 -1 0 5 44 9 98 9 53 0 104 3 112 6 9 4 40 10 70 13 30 3 69 9 87 15 17
5 34 7 37 3 3 -3 6 0 6 6 0 8 29 20 70 27 45 8 315 129 338 152 7 7 17 13 21
13 4 0 17 8 29 18 54 45 63 52 70 52 4 0 32 21 61 48 75 65 174 162 166 162
-3 0 4 10 15 22 12 13 35 44 52 70 16 27 35 48 41 48 6 0 8 3 4 6 -3 3 4 23
17 43 13 20 26 46 30 59 4 12 12 22 17 22 6 0 8 4 5 8 -3 5 1 20 9 35 8 15 12
27 10 27 -2 0 2 19 11 41 8 23 16 51 19 63 2 12 6 30 8 41 25 115 24 317 -2
403 -1 1 -1 4 -1 7 0 3 -6 21 -14 40 -8 19 -13 35 -11 35 15 0 -89 224 -115
250 -3 3 -25 30 -50 59 -51 62 -103 114 -150 151 -18 14 -38 31 -46 38 -40 38
-263 130 -278 115 -3 -4 -6 -1 -6 6 0 7 -4 9 -10 6 -5 -3 -16 -3 -22 2 -15 9
-22 10 -108 19 -74 7 -73 7 -80 5 -3 -1 -34 -4 -70 -6 -63 -3 -103 -8 -165
-22 -38 -9 -37 -8 -57 -17 -9 -4 -22 -9 -30 -10 -16 -4 -43 -14 -83 -31 -83
-36 -112 -51 -139 -74 -9 -7 -16 -10 -16 -5 0 5 -4 4 -8 -2 -4 -6 -14 -15 -23
-20 -20 -11 -95 -72 -124 -99 -11 -11 -23 -19 -27 -18 -5 2 -8 -4 -8 -12 0 -8
-7 -15 -15 -15 -8 0 -15 -5 -15 -11 0 -6 -12 -23 -27 -39 -39 -39 -57 -62 -79
-98 -10 -18 -22 -32 -26 -32 -4 0 -8 -5 -8 -11 0 -6 -9 -24 -21 -40 -11 -16
-17 -29 -12 -29 4 0 3 -4 -2 -8 -14 -9 -92 -172 -94 -195 0 -4 -8 -21 -16 -37
-8 -16 -15 -31 -14 -32 6 -9 -13 -45 -24 -46 -6 -1 -43 -3 -82 -6 -38 -3 -70
-5 -70 -6 0 -1 -17 -2 -38 -3 -32 -2 -35 0 -20 11 9 6 14 12 11 12 -3 0 -2 17
3 38 10 48 21 103 23 122 1 9 5 20 8 25 3 6 9 27 13 48 4 20 10 37 14 37 4 0
7 9 8 19 3 32 79 180 101 194 6 4 12 13 12 20 0 7 10 24 23 39 12 14 42 52 66
82 24 31 49 56 54 56 6 0 8 2 5 5 -3 3 24 34 60 68 36 34 75 71 86 82 44 42
147 113 216 148 25 12 47 25 48 30 2 4 12 7 23 7 10 0 19 5 19 12 0 6 3 9 6 5
3 -3 29 4 58 15 28 11 58 22 66 23 8 1 24 6 35 10 54 20 75 25 130 34 33 6 71
12 85 14 31 4 260 -1 280 -6z m-8 -469 c24 -5 52 -14 63 -18 11 -5 44 -19 73
-31 28 -12 52 -25 52 -30 0 -5 6 -9 13 -9 7 0 22 -8 33 -18 10 -10 22 -19 27
-20 19 -5 47 -28 47 -39 0 -6 9 -15 20 -18 11 -3 20 -10 20 -15 0 -4 14 -21
30 -37 17 -15 30 -34 30 -40 0 -7 4 -13 8 -13 5 0 15 -12 23 -27 8 -16 16 -30
19 -33 7 -7 33 -62 36 -77 1 -7 9 -34 18 -60 33 -103 40 -238 19 -347 -7 -39
-15 -81 -17 -92 -2 -12 -16 -48 -31 -80 -15 -33 -28 -65 -28 -71 0 -7 -4 -13
-8 -13 -4 0 -11 -9 -14 -21 -7 -20 -23 -44 -53 -75 -7 -8 -10 -14 -7 -14 7 0
-130 -135 -183 -180 -16 -14 -46 -34 -66 -45 -20 -11 -36 -23 -36 -27 0 -5 -9
-8 -20 -8 -11 0 -20 -4 -20 -8 0 -9 -89 -52 -106 -52 -5 0 -10 17 -12 37 -1
20 -6 41 -10 47 -5 6 -9 24 -10 40 -1 16 -6 34 -12 41 -5 6 -7 15 -3 18 3 4 1
7 -6 7 -7 0 -10 4 -7 9 6 8 -22 75 -50 121 -8 14 -18 33 -21 43 -3 9 -9 17
-14 17 -5 0 -9 7 -9 15 0 8 -4 15 -8 15 -4 0 -16 14 -25 30 -25 42 -203 219
-257 256 -50 34 -180 98 -220 109 -3 0 -23 5 -45 9 -22 4 -51 10 -65 13 -14 3
-39 6 -57 7 -18 1 -35 5 -39 9 -4 4 -13 2 -20 -4 -24 -19 -28 17 -8 71 10 27
21 50 24 50 4 0 7 6 7 13 0 6 12 31 26 54 15 24 27 47 27 52 0 6 8 15 18 20 9
6 13 11 9 11 -10 0 102 139 144 176 17 16 42 39 55 52 13 12 26 22 29 22 3 0
23 13 43 29 78 60 206 117 292 128 19 3 37 7 39 8 8 8 204 2 243 -7z m-954
-922 c23 -3 59 -8 80 -10 45 -6 130 -31 169 -51 15 -8 34 -15 41 -15 6 0 12
-4 12 -9 0 -5 13 -14 29 -20 15 -7 48 -30 72 -52 24 -21 47 -39 51 -39 4 0 8
-5 8 -10 0 -6 12 -24 28 -41 15 -17 30 -39 34 -50 8 -20 5 -20 -102 -3 -36 6
-112 15 -130 16 -8 0 -33 4 -55 8 -22 5 -65 11 -95 15 -84 10 -126 15 -167 19
-21 3 -49 7 -63 10 -83 16 -262 22 -370 12 -82 -7 -116 -14 -220 -41 -36 -9
-72 -18 -80 -20 -26 -5 -124 -46 -137 -57 -7 -6 -13 -8 -13 -4 0 4 -15 -1 -32
-11 -18 -9 -35 -18 -38 -18 -3 0 -16 -7 -30 -15 -14 -8 -27 -15 -30 -15 -15
-3 -85 -41 -88 -47 -2 -5 -12 -8 -23 -8 -10 0 -19 -4 -19 -9 0 -5 -8 -11 -17
-15 -27 -9 -93 -50 -121 -75 -13 -11 -26 -21 -28 -21 -21 0 -207 -190 -250
-255 -21 -33 -41 -62 -44 -65 -5 -5 -52 -99 -55 -110 -1 -3 -6 -16 -12 -30
-10 -22 -22 -55 -49 -125 -4 -11 -8 -29 -9 -40 -1 -11 -5 -29 -8 -40 -17 -56
-25 -265 -12 -325 3 -14 8 -41 11 -60 3 -19 8 -38 11 -43 2 -4 7 -19 9 -34 3
-14 14 -44 24 -66 11 -23 20 -46 20 -53 0 -7 3 -14 8 -16 4 -1 18 -25 32 -53
13 -27 29 -53 35 -57 5 -4 10 -11 10 -15 0 -5 7 -16 15 -26 8 -10 20 -23 25
-30 29 -35 85 -96 85 -92 0 2 12 -7 28 -21 15 -14 34 -32 43 -40 9 -8 21 -14
27 -14 5 0 12 -4 14 -8 4 -11 118 -72 134 -72 7 0 14 -4 16 -10 2 -5 12 -11
23 -13 11 -2 28 -7 37 -11 9 -4 22 -9 30 -10 7 -2 24 -6 38 -9 108 -28 269
-39 375 -24 67 9 147 23 153 27 1 2 5 3 10 4 71 19 102 29 125 42 15 8 27 12
27 9 0 -4 8 1 17 10 9 10 29 22 45 27 15 6 28 14 28 19 0 5 7 9 15 9 9 0 18 7
21 15 4 8 10 12 15 9 5 -3 9 0 9 5 0 6 5 11 10 11 11 0 33 18 95 78 18 17 39
32 46 32 7 0 10 2 7 5 -3 3 17 29 44 58 82 86 236 328 230 360 -1 4 2 7 6 7 4
0 9 12 10 26 1 15 7 33 13 40 6 8 9 14 6 14 -3 0 1 16 9 35 8 19 11 35 7 35
-5 0 -2 4 6 9 8 5 24 6 36 1 12 -5 27 -5 33 -1 6 4 37 6 69 5 75 -2 75 -2 68
-15 -8 -12 -17 -61 -19 -101 0 -16 -5 -28 -10 -28 -5 0 -7 -3 -4 -6 14 -13
-82 -281 -106 -296 -6 -4 -7 -8 -3 -8 4 0 -4 -17 -18 -37 -14 -21 -25 -43 -25
-49 0 -7 -3 -14 -7 -16 -5 -1 -20 -21 -35 -43 -39 -58 -266 -286 -285 -286 -4
0 -12 -7 -16 -15 -4 -8 -13 -14 -19 -14 -6 0 -19 -6 -27 -14 -27 -23 -169 -95
-175 -89 -3 3 -8 -2 -12 -11 -3 -9 -10 -13 -15 -11 -5 3 -20 -1 -33 -10 -14
-9 -26 -16 -28 -15 -2 1 -16 -4 -33 -10 -16 -7 -34 -13 -40 -14 -78 -18 -132
-28 -158 -31 -18 -2 -32 -4 -32 -5 0 -4 -183 -14 -195 -10 -3 1 -36 3 -75 4
-38 2 -70 4 -70 6 0 1 -13 3 -30 5 -43 5 -74 11 -125 26 -25 7 -48 12 -52 11
-5 -1 -8 3 -8 10 0 6 -3 9 -6 5 -4 -3 -19 0 -35 9 -16 8 -31 14 -34 14 -6 -1
-138 64 -202 100 -18 9 -30 20 -26 24 3 3 0 6 -8 6 -8 0 -22 8 -30 18 -9 9
-28 25 -42 36 -31 22 -137 125 -137 133 0 3 -8 13 -18 22 -24 21 -102 128
-102 139 0 5 -7 15 -15 22 -8 7 -12 16 -9 21 3 5 1 9 -4 9 -5 0 -9 6 -9 13 0
6 -9 32 -20 57 -47 105 -48 108 -56 143 -1 6 -5 17 -8 22 -9 14 -21 64 -26
105 -7 52 -10 314 -5 324 3 5 7 28 8 50 3 38 10 78 14 84 3 2 2 1 15 57 4 22
8 43 7 48 -1 4 2 7 8 7 6 0 9 3 8 8 -4 14 26 112 34 112 4 0 8 8 8 19 0 10 9
30 20 43 10 14 17 28 14 30 -2 3 2 11 11 18 8 7 15 19 15 26 0 8 4 14 9 14 5
0 14 14 21 30 7 17 16 30 21 30 5 0 9 5 9 10 0 6 11 22 25 36 14 14 25 28 25
33 0 8 149 161 196 201 97 83 214 165 303 213 19 10 41 25 49 34 8 8 23 12 33
10 10 -3 19 -1 21 4 2 5 12 11 23 13 11 3 38 12 60 22 22 10 43 17 48 16 4 -1
7 3 7 9 0 5 4 8 9 4 5 -3 12 -1 16 5 4 6 11 8 16 5 5 -4 9 -1 9 6 0 7 3 9 7 6
3 -4 12 -2 20 4 7 6 13 9 13 5 0 -4 13 0 29 8 16 9 31 12 35 9 3 -4 6 -2 6 4
0 5 6 10 13 11 27 4 54 9 92 20 59 16 164 33 218 36 15 0 27 4 27 7 0 8 430 3
488 -5z m-258 -457 c0 -5 11 -4 24 1 13 5 26 6 29 3 4 -3 19 -6 34 -8 15 -1
51 -6 78 -9 28 -4 70 -10 95 -13 85 -9 115 -12 146 -16 17 -2 57 -7 90 -11 32
-4 73 -10 89 -12 17 -3 50 -7 75 -9 25 -2 45 -5 45 -5 0 -2 11 -3 134 -14 35
-4 67 -8 71 -11 4 -2 10 -21 13 -42 3 -21 8 -48 11 -60 4 -21 -5 -29 -48 -37
-6 -2 -29 -8 -51 -14 -22 -6 -58 -14 -80 -18 -47 -8 -324 -8 -375 0 -19 3 -64
8 -100 11 -36 3 -81 7 -100 10 -58 6 -132 15 -175 20 -22 3 -65 8 -95 10 -30
3 -86 8 -125 11 -38 4 -91 7 -117 8 -27 0 -48 4 -48 8 0 4 -11 3 -25 -2 -34
-13 -38 -5 -51 91 -6 46 -5 47 28 57 56 18 153 41 193 47 21 2 39 6 41 7 7 7
194 4 194 -3z m-675 -180 c4 -12 9 -29 10 -38 2 -9 4 -16 5 -16 2 0 6 -19 15
-65 3 -19 10 -36 16 -38 5 -2 9 -11 9 -21 0 -9 7 -26 15 -37 8 -12 12 -24 9
-26 -2 -3 2 -11 11 -18 8 -7 15 -21 15 -31 0 -11 3 -19 8 -19 4 0 16 -16 26
-35 11 -19 23 -35 28 -35 4 0 8 -5 8 -11 0 -6 14 -27 30 -46 17 -18 30 -38 30
-43 0 -5 9 -12 20 -15 11 -4 18 -10 16 -14 -3 -4 16 -25 41 -47 26 -21 55 -47
65 -56 10 -10 22 -18 26 -18 5 0 17 -9 27 -20 10 -11 24 -20 32 -20 7 0 13 -4
13 -10 0 -5 7 -10 15 -10 8 0 15 -4 15 -10 0 -5 6 -10 13 -10 7 0 33 -10 57
-21 24 -12 49 -22 54 -24 10 -2 43 -8 111 -21 17 -3 46 -8 65 -10 19 -3 44 -7
55 -9 11 -2 28 -4 37 -4 17 -1 17 -5 3 -61 -2 -8 -4 -15 -5 -15 -1 0 -3 -8 -5
-17 -7 -36 -88 -188 -122 -227 -19 -23 -32 -41 -28 -41 7 0 -107 -111 -162
-157 -21 -18 -44 -33 -50 -33 -7 0 -13 -4 -13 -8 0 -14 -213 -105 -223 -96 -3
3 -14 1 -24 -5 -19 -10 -140 -24 -198 -24 -60 1 -143 14 -202 32 -17 5 -34 7
-37 3 -3 -3 -6 0 -6 6 0 7 -7 12 -14 12 -15 0 -127 62 -156 85 -74 62 -180
187 -180 214 0 6 -4 11 -8 11 -6 0 -32 52 -36 72 0 3 -4 10 -8 14 -5 4 -8 19
-8 34 0 14 -4 30 -10 36 -5 5 -11 33 -12 62 -1 29 -5 52 -8 52 -10 0 -5 65 5
72 6 5 6 8 -1 8 -8 0 -9 14 -3 46 5 25 6 50 3 55 -3 5 0 9 6 9 6 0 9 4 6 8 -3
4 0 26 5 48 6 21 11 45 11 52 1 6 5 12 10 12 5 0 6 5 3 10 -3 6 -1 10 6 10 7
0 9 3 6 6 -8 9 53 124 65 124 5 0 6 5 3 10 -3 6 -2 10 4 10 5 0 12 8 15 18 3
9 22 34 41 55 19 21 35 40 35 42 0 16 248 219 269 220 3 0 17 7 31 15 56 34
66 39 77 39 6 1 15 -9 18 -20z"/>
</g>
</svg>
